<?xml version="1.0" standalone="no"?>
<!DOCTYPE svg PUBLIC "-//W3C//DTD SVG 20010904//EN"
 "http://www.w3.org/TR/2001/REC-SVG-20010904/DTD/svg10.dtd">
<svg version="1.0" xmlns="http://www.w3.org/2000/svg"
 width="512.000000pt" height="512.000000pt" viewBox="0 0 512.000000 512.000000"
 preserveAspectRatio="xMidYMid meet">
<metadata>
Created by potrace 1.14, written by Peter Selinger 2001-2017
</metadata>
<g transform="translate(0.000000,512.000000) scale(0.100000,-0.100000)"
fill="#000000" stroke="none">
<path d="M2379 5116 c-2 -2 -35 -6 -74 -10 -38 -3 -97 -10 -130 -16 -33 -6
-76 -13 -95 -16 -74 -11 -299 -73 -395 -108 -124 -46 -375 -168 -475 -232
-636 -406 -1058 -1038 -1175 -1759 -2 -11 -6 -36 -9 -55 -22 -132 -29 -545
-11 -650 3 -19 13 -78 21 -130 128 -798 652 -1505 1391 -1874 180 -90 401
-168 585 -206 101 -21 115 -23 233 -41 98 -14 454 -20 550 -8 141 17 161 20
240 35 627 116 1200 477 1583 995 243 329 415 737 468 1109 2 19 6 44 9 55 29
141 27 537 -4 740 -113 739 -559 1409 -1197 1798 -259 158 -595 288 -859 332
-16 3 -39 7 -51 9 -12 2 -45 7 -74 11 -29 4 -62 9 -74 12 -24 5 -452 14 -457
9z m431 -116 c196 -22 419 -73 588 -136 127 -47 343 -151 432 -208 39 -25 73
-46 76 -46 3 0 10 -5 17 -10 7 -6 44 -33 82 -61 452 -331 788 -822 925 -1354
33 -130 35 -135 56 -265 31 -183 24 -661 -10 -779 -3 -9 -8 -35 -11 -59 -9
-61 -70 -281 -101 -360 -52 -136 -67 -170 -129 -288 -123 -238 -246 -406 -445
-604 -213 -213 -392 -341 -655 -470 -77 -38 -184 -85 -239 -105 -99 -37 -328
-98 -401 -109 -22 -3 -53 -7 -70 -10 -16 -3 -46 -8 -65 -12 -19 -3 -136 -7
-260 -9 -210 -4 -302 2 -475 30 -80 13 -305 75 -401 110 -178 65 -482 226
-599 317 -5 4 -46 36 -90 70 -74 57 -281 257 -350 338 -138 161 -295 416 -380
615 -69 162 -142 415 -164 570 -7 44 -16 107 -20 140 -13 90 -13 367 -1 496
11 110 39 270 61 354 6 22 12 47 14 55 2 8 15 53 30 100 80 250 216 509 388
739 93 124 336 367 457 458 375 279 765 435 1230 492 88 10 417 11 510 1z"/>
<path d="M2340 4860 c-236 -29 -384 -62 -572 -131 -126 -46 -355 -160 -464
-232 -300 -195 -590 -503 -752 -797 -30 -54 -122 -239 -122 -245 0 -4 -6 -21
-14 -38 -53 -121 -105 -308 -141 -512 -27 -152 -27 -540 1 -690 51 -285 108
-463 213 -675 261 -522 700 -924 1236 -1133 79 -31 236 -80 291 -91 10 -3 42
-10 69 -16 28 -6 64 -13 80 -16 17 -2 41 -6 54 -9 138 -27 516 -28 686 0 395
65 742 213 1057 451 94 72 277 245 358 339 181 211 342 496 430 762 54 166 85
303 107 483 15 124 9 442 -11 580 -57 398 -235 805 -488 1119 -153 188 -398
403 -602 525 -201 121 -482 238 -655 271 -13 2 -31 7 -41 10 -22 7 -120 24
-175 31 -22 2 -53 7 -70 10 -49 9 -405 12 -475 4z m364 -104 c65 -4 121 -8
125 -10 3 -2 33 -6 66 -10 34 -3 122 -21 196 -40 319 -80 597 -219 850 -423
341 -275 599 -656 724 -1069 19 -62 37 -124 39 -136 20 -100 36 -192 41 -238
4 -30 8 -68 10 -85 11 -74 4 -357 -9 -450 -3 -16 -8 -52 -11 -80 -17 -120 -89
-379 -140 -500 -108 -255 -280 -510 -478 -708 -105 -105 -122 -120 -232 -204
-306 -232 -701 -392 -1060 -428 -38 -4 -79 -9 -90 -12 -11 -2 -79 -4 -151 -4
-497 -1 -967 153 -1349 444 -559 426 -874 1060 -876 1762 0 151 7 223 48 458
11 68 67 248 109 353 252 630 784 1112 1434 1299 120 34 242 60 345 71 92 10
227 19 260 18 17 -1 83 -5 149 -8z"/>
<path d="M2397 4624 c-1 -1 -33 -5 -72 -9 -38 -4 -72 -8 -75 -10 -3 -1 -27 -6
-55 -9 -196 -26 -483 -135 -703 -268 -486 -291 -846 -801 -957 -1352 -32 -163
-36 -196 -40 -371 -10 -401 87 -765 297 -1113 264 -440 713 -783 1208 -923
149 -42 294 -65 467 -75 122 -7 143 1 143 56 0 38 -29 47 -160 54 -690 34
-1328 454 -1644 1084 -74 147 -151 374 -172 507 -30 188 -32 223 -29 400 1
105 6 204 9 220 4 17 11 57 17 90 115 669 609 1259 1249 1492 100 37 250 79
316 88 21 4 53 9 69 12 62 10 82 12 175 18 163 10 170 12 170 71 0 34 -36 45
-133 42 -43 -2 -79 -4 -80 -4z"/>
<path d="M2317 4088 c-120 -20 -196 -39 -292 -75 -480 -179 -842 -583 -969
-1080 -9 -34 -19 -84 -22 -110 -3 -26 -9 -68 -14 -92 -9 -48 -6 -330 4 -371 3
-14 8 -43 11 -65 7 -60 42 -191 72 -270 142 -380 411 -674 783 -860 118 -59
297 -117 405 -130 28 -4 58 -9 68 -12 10 -3 66 -7 123 -8 94 -4 105 -2 114 15
33 61 -2 87 -130 94 -124 7 -232 27 -354 66 -100 32 -266 108 -296 135 -9 8
-20 15 -25 15 -22 0 -215 157 -274 224 -14 16 -36 38 -47 50 -45 44 -142 186
-187 273 -64 125 -103 228 -134 363 -23 100 -26 138 -27 290 -1 96 3 198 7
225 4 28 9 59 11 70 2 11 11 49 20 85 49 186 127 347 245 505 49 65 48 65 136
155 190 195 494 355 750 396 22 3 43 8 47 10 3 2 57 7 120 10 121 7 148 18
148 60 0 12 -7 30 -16 39 -20 20 -129 17 -277 -7z"/>
<path d="M2405 3689 c-188 -32 -323 -83 -465 -175 -318 -208 -505 -544 -515
-924 -6 -224 45 -423 153 -605 174 -293 455 -487 794 -548 80 -15 286 -16 368
-2 324 54 607 242 787 524 67 104 135 283 158 411 13 75 12 296 -2 370 -7 41
-16 88 -19 105 -12 64 -76 213 -128 300 -161 270 -432 462 -750 532 -80 17
-306 24 -381 12z m340 -114 c383 -80 674 -333 793 -690 41 -122 51 -193 47
-350 -3 -157 -17 -232 -66 -354 -108 -270 -335 -491 -604 -589 -125 -46 -230
-62 -380 -58 -77 2 -149 6 -160 9 -11 3 -48 12 -82 21 -300 78 -562 307 -682
596 -61 147 -81 258 -77 420 4 136 5 150 31 251 96 373 421 670 812 744 77 14
300 15 368 0z"/>
<path d="M2509 2734 c-133 -40 -175 -207 -77 -303 87 -85 236 -62 288 45 37
75 19 174 -39 222 -49 40 -114 54 -172 36z m105 -124 c26 -25 25 -76 -2 -102
-45 -45 -125 -13 -125 51 0 70 75 100 127 51z"/>
</g>
</svg>
